Assistant-ExtraLight.ufo
<glyph name="percent" format="2">
  <advance width="798"/>
  <unicode hex="0025"/>
  <outline>
    <contour>
      <point x="196" y="-12" type="line"/>
      <point x="228" y="-12" type="line"/>
      <point x="598" y="672" type="line"/>
      <point x="566" y="672" type="line"/>
    </contour>
    <contour>
      <point x="180" y="258" type="curve" smooth="yes"/>
      <point x="266" y="258"/>
      <point x="318" y="332"/>
      <point x="318" y="466" type="curve" smooth="yes"/>
      <point x="318" y="598"/>
      <point x="266" y="672"/>
      <point x="180" y="672" type="curve" smooth="yes"/>
      <point x="94" y="672"/>
      <point x="42" y="598"/>
      <point x="42" y="466" type="curve" smooth="yes"/>
      <point x="42" y="332"/>
      <point x="94" y="258"/>
    </contour>
    <contour>
      <point x="180" y="284" type="curve" smooth="yes"/>
      <point x="114" y="284"/>
      <point x="72" y="352"/>
      <point x="72" y="466" type="curve" smooth="yes"/>
      <point x="72" y="580"/>
      <point x="114" y="646"/>
      <point x="180" y="646" type="curve" smooth="yes"/>
      <point x="246" y="646"/>
      <point x="288" y="580"/>
      <point x="288" y="466" type="curve" smooth="yes"/>
      <point x="288" y="352"/>
      <point x="246" y="284"/>
    </contour>
    <contour>
      <point x="618" y="-12" type="curve" smooth="yes"/>
      <point x="704" y="-12"/>
      <point x="756" y="62"/>
      <point x="756" y="196" type="curve" smooth="yes"/>
      <point x="756" y="328"/>
      <point x="704" y="402"/>
      <point x="618" y="402" type="curve" smooth="yes"/>
      <point x="532" y="402"/>
      <point x="480" y="328"/>
      <point x="480" y="196" type="curve" smooth="yes"/>
      <point x="480" y="62"/>
      <point x="532" y="-12"/>
    </contour>
    <contour>
      <point x="618" y="14" type="curve" smooth="yes"/>
      <point x="552" y="14"/>
      <point x="510" y="82"/>
      <point x="510" y="196" type="curve" smooth="yes"/>
      <point x="510" y="310"/>
      <point x="552" y="376"/>
      <point x="618" y="376" type="curve" smooth="yes"/>
      <point x="684" y="376"/>
      <point x="726" y="310"/>
      <point x="726" y="196" type="curve" smooth="yes"/>
      <point x="726" y="82"/>
      <point x="684" y="14"/>
    </contour>
  </outline>
</glyph>
<glyph name="plus" format="2">
  <advance width="472"/>
  <unicode hex="002B"/>
  <outline>
    <contour>
      <point x="220" y="112" type="line"/>
      <point x="252" y="112" type="line"/>
      <point x="252" y="316" type="line"/>
      <point x="438" y="316" type="line"/>
      <point x="438" y="344" type="line"/>
      <point x="252" y="344" type="line"/>
      <point x="252" y="548" type="line"/>
      <point x="220" y="548" type="line"/>
      <point x="220" y="344" type="line"/>
      <point x="34" y="344" type="line"/>
      <point x="34" y="316" type="line"/>
      <point x="220" y="316" type="line"/>
    </contour>
  </outline>
</glyph>
<glyph name="slash" format="2">
  <advance width="360"/>
  <unicode hex="002F"/>
  <outline>
    <contour>
      <point x="8" y="-160" type="line"/>
      <point x="38" y="-160" type="line"/>
      <point x="358" y="710" type="line"/>
      <point x="328" y="710" type="line"/>
    </contour>
  </outline>
</glyph>
<glyph name="one" format="2">
  <advance width="434"/>
  <unicode hex="0031"/>
  <outline>
    <contour>
      <point x="55" y="0" type="line"/>
      <point x="379" y="0" type="line"/>
      <point x="379" y="28" type="line"/>
      <point x="237" y="28" type="line"/>
      <point x="237" y="640" type="line"/>
      <point x="211" y="640" type="line"/>
      <point x="183" y="624"/>
      <point x="143" y="610"/>
      <point x="93" y="602" type="curve"/>
      <point x="93" y="580" type="line"/>
      <point x="207" y="580" type="line"/>
      <point x="207" y="28" type="line"/>
      <point x="55" y="28" type="line"/>
    </contour>
  </outline>
</glyph>
<glyph name="D" format="2">
  <advance width="600"/>
  <unicode hex="0044"/>
  <anchor x="300" y="680" name="aboveUC"/>
  <anchor x="300" y="0" name="baseLC"/>
  <anchor x="298" y="-20" name="belowLC"/>
  <outline>
    <contour>
      <point x="100" y="0" type="line"/>
      <point x="248" y="0" type="line" smooth="yes"/>
      <point x="452" y="0"/>
      <point x="544" y="136"/>
      <point x="544" y="332" type="curve" smooth="yes"/>
      <point x="544" y="528"/>
      <point x="452" y="660"/>
      <point x="248" y="660" type="curve" smooth="yes"/>
      <point x="100" y="660" type="line"/>
    </contour>
    <contour>
      <point x="132" y="28" type="line"/>
      <point x="132" y="632" type="line"/>
      <point x="244" y="632" type="line" smooth="yes"/>
      <point x="432" y="632"/>
      <point x="510" y="506"/>
      <point x="510" y="332" type="curve" smooth="yes"/>
      <point x="510" y="158"/>
      <point x="432" y="28"/>
      <point x="244" y="28" type="curve" smooth="yes"/>
    </contour>
  </outline>
</glyph>
<glyph name="E" format="2">
  <advance width="510"/>
  <unicode hex="0045"/>
  <anchor x="282" y="680" name="aboveUC"/>
  <anchor x="255" y="0" name="baseLC"/>
  <anchor x="290" y="-20" name="belowLC"/>
  <anchor x="384" y="0" name="ogonekUC"/>
  <outline>
    <contour>
      <point x="100" y="0" type="line"/>
      <point x="464" y="0" type="line"/>
      <point x="464" y="28" type="line"/>
      <point x="132" y="28" type="line"/>
      <point x="132" y="338" type="line"/>
      <point x="402" y="338" type="line"/>
      <point x="402" y="366" type="line"/>
      <point x="132" y="366" type="line"/>
      <point x="132" y="632" type="line"/>
      <point x="454" y="632" type="line"/>
      <point x="454" y="660" type="line"/>
      <point x="100" y="660" type="line"/>
    </contour>
  </outline>
</glyph>
<glyph name="F" format="2">
  <advance width="470"/>
  <unicode hex="0046"/>
  <anchor x="284" y="680" name="aboveUC"/>
  <anchor x="235" y="0" name="baseLC"/>
  <anchor x="116" y="-20" name="belowLC"/>
  <outline>
    <contour>
      <point x="100" y="0" type="line"/>
      <point x="132" y="0" type="line"/>
      <point x="132" y="326" type="line"/>
      <point x="402" y="326" type="line"/>
      <point x="402" y="354" type="line"/>
      <point x="132" y="354" type="line"/>
      <point x="132" y="632" type="line"/>
      <point x="452" y="632" type="line"/>
      <point x="452" y="660" type="line"/>
      <point x="100" y="660" type="line"/>
    </contour>
  </outline>
</glyph>
<glyph name="K" format="2">
  <advance width="550"/>
  <unicode hex="004B"/>
  <anchor x="304" y="680" name="aboveUC"/>
  <anchor x="324" y="-20" name="belowLC"/>
  <outline>
    <contour>
      <point x="100" y="0" type="line"/>
      <point x="132" y="0" type="line"/>
      <point x="132" y="234" type="line"/>
      <point x="274" y="394" type="line"/>
      <point x="500" y="0" type="line"/>
      <point x="538" y="0" type="line"/>
      <point x="298" y="418" type="line"/>
      <point x="510" y="660" type="line"/>
      <point x="470" y="660" type="line"/>
      <point x="134" y="280" type="line"/>
      <point x="132" y="280" type="line"/>
      <point x="132" y="660" type="line"/>
      <point x="100" y="660" type="line"/>
    </contour>
  </outline>
</glyph>
<glyph name="L" format="2">
  <advance width="460"/>
  <unicode hex="004C"/>
  <anchor x="116" y="680" name="aboveUC"/>
  <anchor x="230" y="0" name="baseLC"/>
  <anchor x="288" y="-20" name="belowLC"/>
  <anchor x="230" y="0" name="center"/>
  <outline>
    <contour>
      <point x="100" y="0" type="line"/>
      <point x="442" y="0" type="line"/>
      <point x="442" y="28" type="line"/>
      <point x="132" y="28" type="line"/>
      <point x="132" y="660" type="line"/>
      <point x="100" y="660" type="line"/>
    </contour>
  </outline>
</glyph>
<glyph name="M" format="2">
  <advance width="698"/>
  <unicode hex="004D"/>
  <anchor x="348" y="680" name="aboveUC"/>
  <anchor x="349" y="0" name="baseLC"/>
  <anchor x="350" y="-20" name="belowLC"/>
  <outline>
    <contour>
      <point x="100" y="0" type="line"/>
      <point x="130" y="0" type="line"/>
      <point x="130" y="460" type="line" smooth="yes"/>
      <point x="130" y="512"/>
      <point x="128" y="578"/>
      <point x="126" y="632" type="curve"/>
      <point x="130" y="632" type="line"/>
      <point x="182" y="486" type="line"/>
      <point x="332" y="74" type="line"/>
      <point x="366" y="74" type="line"/>
      <point x="515" y="486" type="line"/>
      <point x="566" y="632" type="line"/>
      <point x="570" y="632" type="line"/>
      <point x="568" y="578"/>
      <point x="566" y="512"/>
      <point x="566" y="460" type="curve" smooth="yes"/>
      <point x="566" y="0" type="line"/>
      <point x="598" y="0" type="line"/>
      <point x="598" y="660" type="line"/>
      <point x="546" y="660" type="line"/>
      <point x="404" y="260" type="line"/>
      <point x="386" y="210"/>
      <point x="370" y="160"/>
      <point x="352" y="110" type="curve"/>
      <point x="348" y="110" type="line"/>
      <point x="330" y="160"/>
      <point x="312" y="210"/>
      <point x="294" y="260" type="curve"/>
      <point x="152" y="660" type="line"/>
      <point x="100" y="660" type="line"/>
    </contour>
  </outline>
</glyph>
<glyph name="U" format="2">
  <advance width="630"/>
  <unicode hex="0055"/>
  <anchor x="314" y="680" name="aboveUC"/>
  <anchor x="315" y="0" name="baseLC"/>
  <anchor x="314" y="-20" name="belowLC"/>
  <anchor x="510" y="670" name="hornLC"/>
  <anchor x="314" y="0" name="ogonekUC"/>
  <outline>
    <contour>
      <point x="314" y="-12" type="curve" smooth="yes"/>
      <point x="420" y="-12"/>
      <point x="532" y="42"/>
      <point x="532" y="246" type="curve" smooth="yes"/>
      <point x="532" y="660" type="line"/>
      <point x="502" y="660" type="line"/>
      <point x="502" y="254" type="line" smooth="yes"/>
      <point x="502" y="72"/>
      <point x="412" y="18"/>
      <point x="314" y="18" type="curve" smooth="yes"/>
      <point x="218" y="18"/>
      <point x="130" y="72"/>
      <point x="130" y="254" type="curve" smooth="yes"/>
      <point x="130" y="660" type="line"/>
      <point x="98" y="660" type="line"/>
      <point x="98" y="246" type="line" smooth="yes"/>
      <point x="98" y="42"/>
      <point x="208" y="-12"/>
    </contour>
  </outline>
</glyph>
<glyph name="Y" format="2">
  <advance width="436"/>
  <unicode hex="0059"/>
  <anchor x="218" y="680" name="aboveUC"/>
  <anchor x="220" y="-20" name="belowLC"/>
  <anchor x="218" y="0" name="ogonekUC"/>
  <outline>
    <contour>
      <point x="202" y="0" type="line"/>
      <point x="234" y="0" type="line"/>
      <point x="234" y="272" type="line"/>
      <point x="432" y="660" type="line"/>
      <point x="400" y="660" type="line"/>
      <point x="294" y="446" type="line"/>
      <point x="272" y="398"/>
      <point x="246" y="352"/>
      <point x="220" y="304" type="curve"/>
      <point x="216" y="304" type="line"/>
      <point x="190" y="352"/>
      <point x="168" y="398"/>
      <point x="144" y="446" type="curve"/>
      <point x="38" y="660" type="line"/>
      <point x="4" y="660" type="line"/>
      <point x="202" y="272" type="line"/>
    </contour>
  </outline>
</glyph>
<glyph name="Z" format="2">
  <advance width="538"/>
  <unicode hex="005A"/>
  <anchor x="278" y="680" name="aboveUC"/>
  <anchor x="269" y="0" name="baseLC"/>
  <anchor x="282" y="-20" name="belowLC"/>
  <outline>
    <contour>
      <point x="52" y="0" type="line"/>
      <point x="488" y="0" type="line"/>
      <point x="488" y="28" type="line"/>
      <point x="92" y="28" type="line"/>
      <point x="484" y="642" type="line"/>
      <point x="484" y="660" type="line"/>
      <point x="86" y="660" type="line"/>
      <point x="86" y="632" type="line"/>
      <point x="444" y="632" type="line"/>
      <point x="52" y="18" type="line"/>
    </contour>
  </outline>
</glyph>
<glyph name="backslash" format="2">
  <advance width="360"/>
  <unicode hex="005C"/>
  <outline>
    <contour>
      <point x="322" y="-160" type="line"/>
      <point x="352" y="-160" type="line"/>
      <point x="32" y="710" type="line"/>
      <point x="2" y="710" type="line"/>
    </contour>
  </outline>
</glyph>
<glyph name="bracketright" format="2">
  <advance width="270"/>
  <unicode hex="005D"/>
  <outline>
    <contour>
      <point x="18" y="-152" type="line"/>
      <point x="170" y="-152" type="line"/>
      <point x="170" y="708" type="line"/>
      <point x="18" y="708" type="line"/>
      <point x="18" y="686" type="line"/>
      <point x="146" y="686" type="line"/>
      <point x="146" y="-130" type="line"/>
      <point x="18" y="-130" type="line"/>
    </contour>
  </outline>
</glyph>
<glyph name="j" format="2">
  <advance width="222"/>
  <unicode hex="006A"/>
  <anchor x="112" y="688" name="aboveLC"/>
  <anchor x="111" y="500" name="aboveUC"/>
  <anchor x="111" y="-250" name="belowLC"/>
  <outline>
    <contour>
      <point x="28" y="-234" type="curve" smooth="yes"/>
      <point x="94" y="-234"/>
      <point x="126" y="-194"/>
      <point x="126" y="-102" type="curve" smooth="yes"/>
      <point x="126" y="478" type="line"/>
      <point x="96" y="478" type="line"/>
      <point x="96" y="-98" type="line"/>
      <point x="96" y="-160"/>
      <point x="86" y="-206"/>
      <point x="30" y="-206" type="curve" smooth="yes"/>
      <point x="10" y="-206"/>
      <point x="-10" y="-200"/>
      <point x="-22" y="-196" type="curve"/>
      <point x="-30" y="-222" type="line"/>
      <point x="-16" y="-228"/>
      <point x="8" y="-234"/>
    </contour>
    <component base="dotlessj"/>
    <component base="dotaccentcomb" xOffset="112"/>
  </outline>
</glyph>
<glyph name="l" format="2">
  <advance width="230"/>
  <unicode hex="006C"/>
  <anchor x="110" y="730" name="aboveUC"/>
  <anchor x="115" y="0" name="baseLC"/>
  <anchor x="134" y="-20" name="belowLC"/>
  <anchor x="115" y="0" name="center"/>
  <outline>
    <contour>
      <point x="144" y="-12" type="curve" smooth="yes"/>
      <point x="156" y="-12"/>
      <point x="162" y="-10"/>
      <point x="170" y="-8" type="curve"/>
      <point x="164" y="18" type="line"/>
      <point x="154" y="16"/>
      <point x="150" y="16"/>
      <point x="146" y="16" type="curve" smooth="yes"/>
      <point x="134" y="16"/>
      <point x="126" y="26"/>
      <point x="126" y="46" type="curve" smooth="yes"/>
      <point x="126" y="722" type="line"/>
      <point x="96" y="722" type="line"/>
      <point x="96" y="52" type="line" smooth="yes"/>
      <point x="96" y="6"/>
      <point x="114" y="-12"/>
    </contour>
  </outline>
</glyph>
<glyph name="n" format="2">
  <advance width="526"/>
  <unicode hex="006E"/>
  <anchor x="278" y="500" name="aboveLC"/>
  <anchor x="263" y="0" name="baseLC"/>
  <anchor x="268" y="-20" name="belowLC"/>
  <outline>
    <contour>
      <point x="96" y="0" type="line"/>
      <point x="126" y="0" type="line"/>
      <point x="126" y="366" type="line"/>
      <point x="188" y="430"/>
      <point x="232" y="462"/>
      <point x="292" y="462" type="curve" smooth="yes"/>
      <point x="374" y="462"/>
      <point x="408" y="410"/>
      <point x="408" y="304" type="curve" smooth="yes"/>
      <point x="408" y="0" type="line"/>
      <point x="438" y="0" type="line"/>
      <point x="438" y="308" type="line" smooth="yes"/>
      <point x="438" y="432"/>
      <point x="392" y="490"/>
      <point x="294" y="490" type="curve" smooth="yes"/>
      <point x="228" y="490"/>
      <point x="178" y="452"/>
      <point x="128" y="402" type="curve"/>
      <point x="126" y="402" type="line"/>
      <point x="122" y="478" type="line"/>
      <point x="96" y="478" type="line"/>
    </contour>
  </outline>
</glyph>
<glyph name="r" format="2">
  <advance width="306"/>
  <unicode hex="0072"/>
  <anchor x="192" y="500" name="aboveLC"/>
  <anchor x="153" y="0" name="baseLC"/>
  <anchor x="110" y="-20" name="belowLC"/>
  <outline>
    <contour>
      <point x="96" y="0" type="line"/>
      <point x="126" y="0" type="line"/>
      <point x="126" y="332" type="line"/>
      <point x="164" y="426"/>
      <point x="216" y="460"/>
      <point x="260" y="460" type="curve" smooth="yes"/>
      <point x="278" y="460"/>
      <point x="286" y="458"/>
      <point x="302" y="452" type="curve"/>
      <point x="310" y="480" type="line"/>
      <point x="294" y="488"/>
      <point x="280" y="490"/>
      <point x="264" y="490" type="curve" smooth="yes"/>
      <point x="206" y="490"/>
      <point x="160" y="446"/>
      <point x="128" y="388" type="curve"/>
      <point x="126" y="388" type="line"/>
      <point x="122" y="478" type="line"/>
      <point x="96" y="478" type="line"/>
    </contour>
  </outline>
</glyph>
<glyph name="u" format="2">
  <advance width="524"/>
  <unicode hex="0075"/>
  <anchor x="262" y="500" name="aboveLC"/>
  <anchor x="262" y="0" name="baseLC"/>
  <anchor x="280" y="-20" name="belowLC"/>
  <anchor x="396" y="488" name="hornLC"/>
  <anchor x="406" y="0" name="ogonekLC"/>
  <outline>
    <contour>
      <point x="232" y="-12" type="curve" smooth="yes"/>
      <point x="298" y="-12"/>
      <point x="348" y="26"/>
      <point x="396" y="82" type="curve"/>
      <point x="398" y="82" type="line"/>
      <point x="402" y="0" type="line"/>
      <point x="428" y="0" type="line"/>
      <point x="428" y="478" type="line"/>
      <point x="398" y="478" type="line"/>
      <point x="398" y="120" type="line"/>
      <point x="338" y="48"/>
      <point x="294" y="16"/>
      <point x="234" y="16" type="curve" smooth="yes"/>
      <point x="152" y="16"/>
      <point x="118" y="68"/>
      <point x="118" y="174" type="curve" smooth="yes"/>
      <point x="118" y="478" type="line"/>
      <point x="88" y="478" type="line"/>
      <point x="88" y="170" type="line" smooth="yes"/>
      <point x="88" y="46"/>
      <point x="134" y="-12"/>
    </contour>
  </outline>
</glyph>
<glyph name="bar" format="2">
  <advance width="220"/>
  <unicode hex="007C"/>
  <outline>
    <contour>
      <point x="96" y="-250" type="line"/>
      <point x="124" y="-250" type="line"/>
      <point x="124" y="750" type="line"/>
      <point x="96" y="750" type="line"/>
    </contour>
  </outline>
</glyph>
<glyph name="brokenbar" format="2">
  <advance width="220"/>
  <unicode hex="00A6"/>
  <outline>
    <contour>
      <point x="96" y="274" type="line"/>
      <point x="124" y="274" type="line"/>
      <point x="124" y="750" type="line"/>
      <point x="96" y="750" type="line"/>
    </contour>
    <contour>
      <point x="96" y="-250" type="line"/>
      <point x="124" y="-250" type="line"/>
      <point x="124" y="222" type="line"/>
      <point x="96" y="222" type="line"/>
    </contour>
  </outline>
</glyph>
<glyph name="mu" format="2">
  <advance width="524"/>
  <unicode hex="00B5"/>
  <outline>
    <contour>
      <point x="85" y="-192" type="line"/>
      <point x="117" y="-192" type="line"/>
      <point x="117" y="-130" type="line"/>
      <point x="113" y="306" type="line"/>
      <point x="89" y="306" type="line"/>
      <point x="85" y="-130" type="line"/>
    </contour>
    <contour>
      <point x="232" y="-12" type="curve" smooth="yes"/>
      <point x="298" y="-12"/>
      <point x="348" y="26"/>
      <point x="396" y="82" type="curve"/>
      <point x="398" y="82" type="line"/>
      <point x="402" y="0" type="line"/>
      <point x="428" y="0" type="line"/>
      <point x="428" y="478" type="line"/>
      <point x="398" y="478" type="line"/>
      <point x="398" y="120" type="line"/>
      <point x="338" y="48"/>
      <point x="294" y="16"/>
      <point x="234" y="16" type="curve" smooth="yes"/>
      <point x="152" y="16"/>
      <point x="118" y="68"/>
      <point x="118" y="174" type="curve" smooth="yes"/>
      <point x="118" y="478" type="line"/>
      <point x="88" y="478" type="line"/>
      <point x="88" y="170" type="line" smooth="yes"/>
      <point x="88" y="46"/>
      <point x="134" y="-12"/>
    </contour>
  </outline>
</glyph>
<glyph name="onesuperior" format="2">
  <advance width="360"/>
  <unicode hex="00B9"/>
  <outline>
    <contour>
      <point x="178" y="410" type="line"/>
      <point x="206" y="410" type="line"/>
      <point x="206" y="800" type="line"/>
      <point x="180" y="800" type="line"/>
      <point x="158" y="782"/>
      <point x="132" y="770"/>
      <point x="96" y="762" type="curve"/>
      <point x="96" y="740" type="line"/>
      <point x="178" y="740" type="line"/>
    </contour>
  </outline>
</glyph>
<glyph name="onequarter" format="2">
  <advance width="758"/>
  <unicode hex="00BC"/>
  <outline>
    <contour>
      <point x="176" y="-12" type="line"/>
      <point x="208" y="-12" type="line"/>
      <point x="578" y="672" type="line"/>
      <point x="546" y="672" type="line"/>
    </contour>
    <contour>
      <point x="158" y="270" type="line"/>
      <point x="186" y="270" type="line"/>
      <point x="186" y="660" type="line"/>
      <point x="160" y="660" type="line"/>
      <point x="138" y="642"/>
      <point x="112" y="630"/>
      <point x="76" y="622" type="curve"/>
      <point x="76" y="600" type="line"/>
      <point x="158" y="600" type="line"/>
    </contour>
    <contour>
      <point x="622" y="0" type="line"/>
      <point x="650" y="0" type="line"/>
      <point x="650" y="390" type="line"/>
      <point x="628" y="390" type="line"/>
      <point x="446" y="134" type="line"/>
      <point x="446" y="118" type="line"/>
      <point x="708" y="118" type="line"/>
      <point x="708" y="144" type="line"/>
      <point x="486" y="144" type="line"/>
      <point x="564" y="256" type="line"/>
      <point x="622" y="340" type="line"/>
      <point x="626" y="340" type="line"/>
      <point x="622" y="238" type="line"/>
    </contour>
  </outline>
</glyph>
<glyph name="Eth" format="2">
  <advance width="620"/>
  <unicode hex="00D0"/>
  <anchor x="310" y="680" name="aboveUC"/>
  <anchor x="310" y="-20" name="belowLC"/>
  <outline>
    <contour>
      <point x="38" y="336" type="line"/>
      <point x="320" y="336" type="line"/>
      <point x="320" y="364" type="line"/>
      <point x="122" y="364" type="line"/>
      <point x="38" y="362" type="line"/>
    </contour>
    <component base="D" xOffset="20"/>
  </outline>
</glyph>
<glyph name="Hbar" format="2">
  <advance width="666"/>
  <unicode hex="0126"/>
  <outline>
    <contour>
      <point x="38" y="496" type="line"/>
      <point x="628" y="496" type="line"/>
      <point x="628" y="524" type="line"/>
      <point x="121" y="524" type="line"/>
      <point x="38" y="520" type="line"/>
    </contour>
    <component base="H" xOffset="20"/>
  </outline>
</glyph>
<glyph name="idotless" format="2">
  <advance width="222"/>
  <unicode hex="0131"/>
  <anchor x="112" y="500" name="aboveLC"/>
  <anchor x="111" y="0" name="baseLC"/>
  <anchor x="110" y="-20" name="belowLC"/>
  <anchor x="130" y="0" name="ogonekLC"/>
  <outline>
    <contour>
      <point x="96" y="0" type="line"/>
      <point x="126" y="0" type="line"/>
      <point x="126" y="478" type="line"/>
      <point x="96" y="478" type="line"/>
    </contour>
  </outline>
</glyph>
<glyph name="Lslash" format="2">
  <advance width="460"/>
  <unicode hex="0141"/>
  <anchor x="230" y="680" name="aboveUC"/>
  <anchor x="230" y="-20" name="belowLC"/>
  <outline>
    <contour>
      <point x="22" y="220" type="line"/>
      <point x="110" y="267" type="line"/>
      <point x="122" y="271" type="line"/>
      <point x="340" y="384" type="line"/>
      <point x="326" y="408" type="line"/>
      <point x="122" y="301" type="line"/>
      <point x="110" y="297" type="line"/>
      <point x="8" y="244" type="line"/>
    </contour>
    <component base="L" xOffset="4"/>
  </outline>
</glyph>
<glyph name="lslash" format="2">
  <advance width="230"/>
  <unicode hex="0142"/>
  <anchor x="110" y="730" name="aboveUC"/>
  <anchor x="134" y="-20" name="belowLC"/>
  <outline>
    <contour>
      <point x="28" y="332" type="line"/>
      <point x="105" y="382" type="line"/>
      <point x="117" y="388" type="line"/>
      <point x="198" y="444" type="line"/>
      <point x="184" y="466" type="line"/>
      <point x="117" y="420" type="line"/>
      <point x="105" y="414" type="line"/>
      <point x="14" y="354" type="line"/>
    </contour>
    <component base="l"/>
  </outline>
</glyph>
<glyph name="OE" format="2">
  <advance width="828"/>
  <unicode hex="0152"/>
  <anchor x="534" y="680" name="aboveUC"/>
  <anchor x="414" y="0" name="baseLC"/>
  <outline>
    <contour>
      <point x="366" y="0" type="curve" smooth="yes"/>
      <point x="782" y="0" type="line"/>
      <point x="782" y="28" type="line"/>
      <point x="470" y="28" type="line"/>
      <point x="470" y="338" type="line"/>
      <point x="720" y="338" type="line"/>
      <point x="720" y="366" type="line"/>
      <point x="470" y="366" type="line"/>
      <point x="470" y="632" type="line"/>
      <point x="772" y="632" type="line"/>
      <point x="772" y="660" type="line"/>
      <point x="366" y="660" type="line" smooth="yes"/>
      <point x="156" y="660"/>
      <point x="56" y="528"/>
      <point x="56" y="332" type="curve" smooth="yes"/>
      <point x="56" y="136"/>
      <point x="156" y="0"/>
    </contour>
    <contour>
      <point x="370" y="28" type="line" smooth="yes"/>
      <point x="176" y="28"/>
      <point x="90" y="158"/>
      <point x="90" y="332" type="curve" smooth="yes"/>
      <point x="90" y="506"/>
      <point x="176" y="632"/>
      <point x="370" y="632" type="curve" smooth="yes"/>
      <point x="438" y="632" type="line"/>
      <point x="438" y="28" type="line"/>
    </contour>
  </outline>
</glyph>
<glyph name="glottalstop" format="2">
  <advance width="392"/>
  <unicode hex="0294"/>
  <anchor x="196" y="730" name="aboveUC"/>
  <anchor x="196" y="-20" name="belowLC"/>
  <outline>
    <contour>
      <point x="160" y="0" type="line"/>
      <point x="190" y="0" type="line"/>
      <point x="190" y="308" type="line"/>
      <point x="294" y="370"/>
      <point x="370" y="434"/>
      <point x="370" y="552" type="curve" smooth="yes"/>
      <point x="370" y="670"/>
      <point x="290" y="734"/>
      <point x="184" y="734" type="curve" smooth="yes"/>
      <point x="92" y="734"/>
      <point x="38" y="688"/>
      <point x="2" y="648" type="curve"/>
      <point x="22" y="626" type="line"/>
      <point x="56" y="666"/>
      <point x="104" y="706"/>
      <point x="186" y="706" type="curve" smooth="yes"/>
      <point x="284" y="706"/>
      <point x="338" y="644"/>
      <point x="338" y="554" type="curve" smooth="yes"/>
      <point x="338" y="454"/>
      <point x="278" y="392"/>
      <point x="160" y="330" type="curve"/>
    </contour>
  </outline>
</glyph>
<glyph name="acutecomb" format="2">
  <unicode hex="0301"/>
  <anchor x="0" y="500" name="_aboveLC"/>
  <anchor x="0" y="500" name="aboveLC"/>
  <outline>
    <contour>
      <point x="-34" y="574" type="line"/>
      <point x="104" y="724" type="line"/>
      <point x="80" y="744" type="line"/>
      <point x="-52" y="590" type="line"/>
    </contour>
  </outline>
</glyph>
<glyph name="circumflexcomb" format="2">
  <unicode hex="0302"/>
  <anchor x="0" y="500" name="_aboveLC"/>
  <anchor x="0" y="728" name="aboveLC"/>
  <outline>
    <contour>
      <point x="-114" y="574" type="line"/>
      <point x="-2" y="704" type="line"/>
      <point x="2" y="704" type="line"/>
      <point x="114" y="574" type="line"/>
      <point x="132" y="590" type="line"/>
      <point x="14" y="736" type="line"/>
      <point x="-14" y="736" type="line"/>
      <point x="-132" y="590" type="line"/>
    </contour>
  </outline>
</glyph>
<glyph name="brevecomb" format="2">
  <unicode hex="0306"/>
  <anchor x="0" y="500" name="_aboveLC"/>
  <anchor x="0" y="500" name="aboveLC"/>
  <outline>
    <contour>
      <point x="0" y="570" type="curve" smooth="yes"/>
      <point x="101" y="570"/>
      <point x="138" y="654"/>
      <point x="146" y="716" type="curve"/>
      <point x="120" y="720" type="line"/>
      <point x="112" y="662"/>
      <point x="75" y="596"/>
      <point x="0" y="596" type="curve" smooth="yes"/>
      <point x="-75" y="596"/>
      <point x="-112" y="662"/>
      <point x="-120" y="720" type="curve"/>
      <point x="-146" y="716" type="line"/>
      <point x="-138" y="654"/>
      <point x="-101" y="570"/>
    </contour>
  </outline>
</glyph>
<glyph name="ringcomb" format="2">
  <unicode hex="030A"/>
  <anchor x="0" y="500" name="_aboveLC"/>
  <anchor x="0" y="500" name="aboveLC"/>
  <outline>
    <contour>
      <point x="0" y="546" type="curve" smooth="yes"/>
      <point x="52" y="546"/>
      <point x="92" y="584"/>
      <point x="92" y="640" type="curve" smooth="yes"/>
      <point x="92" y="696"/>
      <point x="52" y="734"/>
      <point x="0" y="734" type="curve" smooth="yes"/>
      <point x="-52" y="734"/>
      <point x="-92" y="696"/>
      <point x="-92" y="640" type="curve" smooth="yes"/>
      <point x="-92" y="584"/>
      <point x="-52" y="546"/>
    </contour>
    <contour>
      <point x="0" y="568" type="curve" smooth="yes"/>
      <point x="-38" y="568"/>
      <point x="-68" y="596"/>
      <point x="-68" y="640" type="curve" smooth="yes"/>
      <point x="-68" y="684"/>
      <point x="-38" y="712"/>
      <point x="0" y="712" type="curve" smooth="yes"/>
      <point x="38" y="712"/>
      <point x="68" y="684"/>
      <point x="68" y="640" type="curve" smooth="yes"/>
      <point x="68" y="596"/>
      <point x="38" y="568"/>
    </contour>
  </outline>
</glyph>
<glyph name="sheva-hb" format="2">
  <unicode hex="05B0"/>
  <anchor x="64" y="-8" name="_bottom"/>
  <outline>
    <contour>
      <point x="64" y="-77" type="curve"/>
      <point x="48" y="-77"/>
      <point x="36" y="-91"/>
      <point x="36" y="-106" type="curve"/>
      <point x="36" y="-121"/>
      <point x="48" y="-135"/>
      <point x="64" y="-135" type="curve"/>
      <point x="80" y="-135"/>
      <point x="91" y="-121"/>
      <point x="91" y="-106" type="curve"/>
      <point x="91" y="-91"/>
      <point x="80" y="-77"/>
    </contour>
    <contour>
      <point x="64" y="-167" type="curve"/>
      <point x="48" y="-167"/>
      <point x="36" y="-183"/>
      <point x="36" y="-197" type="curve"/>
      <point x="36" y="-212"/>
      <point x="48" y="-226"/>
      <point x="64" y="-226" type="curve"/>
      <point x="80" y="-226"/>
      <point x="91" y="-212"/>
      <point x="91" y="-197" type="curve"/>
      <point x="91" y="-182"/>
      <point x="80" y="-167"/>
    </contour>
  </outline>
</glyph>
<glyph name="hatafsegol-hb" format="2">
  <unicode hex="05B1"/>
  <anchor x="168" y="-8" name="_bottom"/>
  <outline>
    <contour>
      <point x="272" y="-77" type="curve"/>
      <point x="256" y="-77"/>
      <point x="244" y="-91"/>
      <point x="244" y="-106" type="curve"/>
      <point x="244" y="-121"/>
      <point x="256" y="-135"/>
      <point x="272" y="-135" type="curve"/>
      <point x="288" y="-135"/>
      <point x="299" y="-121"/>
      <point x="299" y="-106" type="curve"/>
      <point x="299" y="-91"/>
      <point x="288" y="-77"/>
    </contour>
    <contour>
      <point x="115" y="-167" type="curve"/>
      <point x="99" y="-167"/>
      <point x="87" y="-183"/>
      <point x="87" y="-197" type="curve"/>
      <point x="87" y="-212"/>
      <point x="99" y="-226"/>
      <point x="115" y="-226" type="curve"/>
      <point x="131" y="-226"/>
      <point x="142" y="-212"/>
      <point x="142" y="-197" type="curve"/>
      <point x="142" y="-182"/>
      <point x="131" y="-167"/>
    </contour>
    <contour>
      <point x="64" y="-77" type="curve"/>
      <point x="48" y="-77"/>
      <point x="36" y="-91"/>
      <point x="36" y="-106" type="curve"/>
      <point x="36" y="-121"/>
      <point x="48" y="-135"/>
      <point x="64" y="-135" type="curve"/>
      <point x="80" y="-135"/>
      <point x="91" y="-121"/>
      <point x="91" y="-106" type="curve"/>
      <point x="91" y="-91"/>
      <point x="80" y="-77"/>
    </contour>
    <contour>
      <point x="272" y="-167" type="curve"/>
      <point x="256" y="-167"/>
      <point x="244" y="-183"/>
      <point x="244" y="-197" type="curve"/>
      <point x="244" y="-212"/>
      <point x="256" y="-226"/>
      <point x="272" y="-226" type="curve"/>
      <point x="288" y="-226"/>
      <point x="299" y="-212"/>
      <point x="299" y="-197" type="curve"/>
      <point x="299" y="-182"/>
      <point x="288" y="-167"/>
    </contour>
    <contour>
      <point x="168" y="-77" type="curve"/>
      <point x="152" y="-77"/>
      <point x="140" y="-91"/>
      <point x="140" y="-106" type="curve"/>
      <point x="140" y="-121"/>
      <point x="152" y="-135"/>
      <point x="168" y="-135" type="curve"/>
      <point x="184" y="-135"/>
      <point x="195" y="-121"/>
      <point x="195" y="-106" type="curve"/>
      <point x="195" y="-91"/>
      <point x="184" y="-77"/>
    </contour>
  </outline>
</glyph>
<glyph name="hatafpatah-hb" format="2">
  <unicode hex="05B2"/>
  <anchor x="162" y="-8" name="_bottom"/>
  <outline>
    <contour>
      <point x="190" y="-85" type="line"/>
      <point x="36" y="-85" type="line"/>
      <point x="36" y="-118" type="line"/>
      <point x="190" y="-118" type="line"/>
    </contour>
    <contour>
      <point x="261" y="-167" type="curve"/>
      <point x="245" y="-167"/>
      <point x="233" y="-183"/>
      <point x="233" y="-197" type="curve"/>
      <point x="233" y="-212"/>
      <point x="245" y="-226"/>
      <point x="261" y="-226" type="curve"/>
      <point x="277" y="-226"/>
      <point x="288" y="-212"/>
      <point x="288" y="-197" type="curve"/>
      <point x="288" y="-182"/>
      <point x="277" y="-167"/>
    </contour>
    <contour>
      <point x="261" y="-77" type="curve"/>
      <point x="245" y="-77"/>
      <point x="233" y="-91"/>
      <point x="233" y="-106" type="curve"/>
      <point x="233" y="-121"/>
      <point x="245" y="-135"/>
      <point x="261" y="-135" type="curve"/>
      <point x="277" y="-135"/>
      <point x="288" y="-121"/>
      <point x="288" y="-106" type="curve"/>
      <point x="288" y="-91"/>
      <point x="277" y="-77"/>
    </contour>
  </outline>
</glyph>
<glyph name="holamhaser-hb" format="2">
  <unicode hex="05BA"/>
  <anchor x="64" y="400" name="_topleft"/>
  <outline>
    <contour>
      <point x="64" y="507" type="curve"/>
      <point x="80" y="507"/>
      <point x="91" y="522"/>
      <point x="91" y="537" type="curve"/>
      <point x="91" y="551"/>
      <point x="80" y="566"/>
      <point x="64" y="566" type="curve"/>
      <point x="48" y="566"/>
      <point x="36" y="551"/>
      <point x="36" y="537" type="curve"/>
      <point x="36" y="522"/>
      <point x="48" y="507"/>
    </contour>
  </outline>
</glyph>
<glyph name="qubuts-hb" format="2">
  <unicode hex="05BB"/>
  <anchor x="62" y="-24" name="_bottom"/>
  <outline>
    <contour>
      <point x="192" y="-189" type="curve"/>
      <point x="176" y="-189"/>
      <point x="164" y="-203"/>
      <point x="164" y="-218" type="curve"/>
      <point x="164" y="-233"/>
      <point x="176" y="-247"/>
      <point x="192" y="-247" type="curve"/>
      <point x="208" y="-247"/>
      <point x="219" y="-233"/>
      <point x="219" y="-218" type="curve"/>
      <point x="219" y="-203"/>
      <point x="208" y="-189"/>
    </contour>
    <contour>
      <point x="64" y="-77" type="curve"/>
      <point x="48" y="-77"/>
      <point x="36" y="-91"/>
      <point x="36" y="-106" type="curve"/>
      <point x="36" y="-121"/>
      <point x="48" y="-135"/>
      <point x="64" y="-135" type="curve"/>
      <point x="80" y="-135"/>
      <point x="91" y="-121"/>
      <point x="91" y="-106" type="curve"/>
      <point x="91" y="-91"/>
      <point x="80" y="-77"/>
    </contour>
    <contour>
      <point x="128" y="-133" type="curve"/>
      <point x="112" y="-133"/>
      <point x="100" y="-147"/>
      <point x="100" y="-162" type="curve"/>
      <point x="100" y="-177"/>
      <point x="112" y="-191"/>
      <point x="128" y="-191" type="curve"/>
      <point x="144" y="-191"/>
      <point x="155" y="-177"/>
      <point x="155" y="-162" type="curve"/>
      <point x="155" y="-147"/>
      <point x="144" y="-133"/>
    </contour>
  </outline>
</glyph>
<glyph name="dagesh-hb" format="2">
  <unicode hex="05BC"/>
  <anchor x="64" y="243" name="_center"/>
  <outline>
    <contour>
      <point x="64" y="320" type="curve"/>
      <point x="48" y="320"/>
      <point x="36" y="305"/>
      <point x="36" y="291" type="curve"/>
      <point x="36" y="275"/>
      <point x="48" y="261"/>
      <point x="64" y="261" type="curve"/>
      <point x="80" y="261"/>
      <point x="91" y="275"/>
      <point x="91" y="291" type="curve"/>
      <point x="91" y="306"/>
      <point x="80" y="320"/>
    </contour>
  </outline>
</glyph>
<glyph name="maqaf-hb" format="2">
  <advance width="306"/>
  <unicode hex="05BE"/>
  <outline>
    <contour>
      <point x="45" y="515" type="line"/>
      <point x="261" y="515" type="line"/>
      <point x="261" y="545" type="line"/>
      <point x="45" y="545" type="line"/>
    </contour>
  </outline>
</glyph>
<glyph name="rafe-hb" format="2">
  <unicode hex="05BF"/>
  <anchor x="126" y="386" name="_top"/>
  <outline>
    <contour>
      <point x="221" y="568" type="line"/>
      <point x="32" y="568" type="line"/>
      <point x="32" y="538" type="line"/>
      <point x="221" y="538" type="line"/>
    </contour>
  </outline>
</glyph>
<glyph name="sindot-hb" format="2">
  <unicode hex="05C2"/>
  <anchor x="64" y="400" name="_topleft"/>
  <outline>
    <contour>
      <point x="64" y="582" type="curve"/>
      <point x="48" y="582"/>
      <point x="36" y="567"/>
      <point x="36" y="553" type="curve"/>
      <point x="36" y="538"/>
      <point x="48" y="523"/>
      <point x="64" y="523" type="curve"/>
      <point x="80" y="523"/>
      <point x="91" y="538"/>
      <point x="91" y="553" type="curve"/>
      <point x="91" y="567"/>
      <point x="80" y="582"/>
    </contour>
  </outline>
</glyph>
<glyph name="qamatsqatan-hb" format="2">
  <unicode hex="05C7"/>
  <anchor x="81" y="-8" name="_bottom"/>
  <outline>
    <contour>
      <point x="126" y="-69" type="line"/>
      <point x="36" y="-69" type="line"/>
      <point x="36" y="-102" type="line"/>
      <point x="75" y="-102" type="line"/>
      <point x="63" y="-202" type="line"/>
      <point x="98" y="-202" type="line"/>
      <point x="86" y="-102" type="line"/>
      <point x="126" y="-102" type="line"/>
    </contour>
  </outline>
</glyph>
<glyph name="alef-hb" format="2">
  <advance width="522"/>
  <unicode hex="05D0"/>
  <anchor x="261" y="0" name="bottom"/>
  <anchor x="15" y="0" name="bottomleft"/>
  <anchor x="229" y="90" name="center"/>
  <anchor x="252" y="500" name="top"/>
  <anchor x="36" y="500" name="topleft"/>
  <outline>
    <contour>
      <point x="482" y="0" type="line"/>
      <point x="339" y="209" type="line"/>
      <point x="447" y="545" type="line"/>
      <point x="414" y="545" type="line"/>
      <point x="341" y="316" type="line"/>
      <point x="320" y="238" type="line"/>
      <point x="211" y="398" type="line"/>
      <point x="117" y="545" type="line"/>
      <point x="82" y="545" type="line"/>
      <point x="173" y="404" type="line"/>
      <point x="148" y="344" type="line"/>
      <point x="40" y="0" type="line"/>
      <point x="72" y="0" type="line"/>
      <point x="191" y="375" type="line"/>
      <point x="445" y="0" type="line"/>
    </contour>
  </outline>
</glyph>
<glyph name="bet-hb" format="2">
  <advance width="515"/>
  <unicode hex="05D1"/>
  <anchor x="195" y="0" name="bottom"/>
  <anchor x="20" y="0" name="bottomleft"/>
  <anchor x="195" y="250" name="center"/>
  <anchor x="275" y="500" name="top"/>
  <anchor x="20" y="500" name="topleft"/>
  <outline>
    <contour>
      <point x="364" y="0" type="line"/>
      <point x="396" y="0" type="line"/>
      <point x="396" y="360" type="line"/>
      <point x="396" y="496"/>
      <point x="331" y="545"/>
      <point x="231" y="545" type="curve" smooth="yes"/>
      <point x="60" y="545" type="line"/>
      <point x="60" y="515" type="line"/>
      <point x="229" y="515" type="line" smooth="yes"/>
      <point x="309" y="515"/>
      <point x="364" y="477"/>
      <point x="364" y="360" type="curve"/>
    </contour>
    <contour>
      <point x="60" y="0" type="line"/>
      <point x="470" y="0" type="line"/>
      <point x="470" y="30" type="line"/>
      <point x="60" y="30" type="line"/>
    </contour>
  </outline>
</glyph>
<glyph name="dalet-hb" format="2">
  <advance width="531"/>
  <unicode hex="05D3"/>
  <anchor x="349" y="0" name="bottom"/>
  <anchor x="20" y="0" name="bottomleft"/>
  <anchor x="196" y="250" name="center"/>
  <anchor x="266" y="500" name="top"/>
  <anchor x="20" y="500" name="topleft"/>
  <outline>
    <contour>
      <point x="334" y="0" type="line"/>
      <point x="366" y="0" type="line"/>
      <point x="366" y="398" type="line" smooth="yes"/>
      <point x="366" y="434"/>
      <point x="371" y="481"/>
      <point x="394" y="515" type="curve"/>
      <point x="466" y="515" type="line"/>
      <point x="466" y="545" type="line"/>
      <point x="65" y="545" type="line"/>
      <point x="65" y="515" type="line"/>
      <point x="361" y="515" type="line"/>
      <point x="343" y="486"/>
      <point x="334" y="446"/>
      <point x="334" y="398" type="curve" smooth="yes"/>
    </contour>
  </outline>
</glyph>
<glyph name="zayin-hb" format="2">
  <advance width="351"/>
  <unicode hex="05D6"/>
  <anchor x="161" y="0" name="bottom"/>
  <anchor x="10" y="0" name="bottomleft"/>
  <anchor x="61" y="250" name="center"/>
  <anchor x="171" y="500" name="top"/>
  <anchor x="10" y="500" name="topleft"/>
  <outline>
    <contour>
      <point x="145" y="0" type="line"/>
      <point x="177" y="0" type="line"/>
      <point x="177" y="398" type="line" smooth="yes"/>
      <point x="177" y="434"/>
      <point x="182" y="481"/>
      <point x="205" y="515" type="curve"/>
      <point x="286" y="515" type="line"/>
      <point x="286" y="545" type="line"/>
      <point x="65" y="545" type="line"/>
      <point x="65" y="515" type="line"/>
      <point x="172" y="515" type="line"/>
      <point x="154" y="486"/>
      <point x="145" y="446"/>
      <point x="145" y="398" type="curve" smooth="yes"/>
    </contour>
  </outline>
</glyph>
<glyph name="tet-hb" format="2">
  <advance width="528"/>
  <unicode hex="05D8"/>
  <anchor x="259" y="0" name="bottom"/>
  <anchor x="0" y="0" name="bottomleft"/>
  <anchor x="269" y="250" name="center"/>
  <anchor x="259" y="500" name="top"/>
  <anchor x="60" y="500" name="topleft"/>
  <outline>
    <contour>
      <point x="122" y="-10" type="line"/>
      <point x="308" y="0"/>
      <point x="482" y="92"/>
      <point x="473" y="336" type="curve" smooth="yes"/>
      <point x="472" y="364" type="line" smooth="yes"/>
      <point x="468" y="483"/>
      <point x="407" y="539"/>
      <point x="296" y="548" type="curve" smooth="yes"/>
      <point x="244" y="552" type="line"/>
      <point x="242" y="522" type="line"/>
      <point x="292" y="519" type="line" smooth="yes"/>
      <point x="393" y="513"/>
      <point x="441" y="454"/>
      <point x="441" y="357" type="curve" smooth="yes"/>
      <point x="441" y="336" type="line"/>
      <point x="451" y="103"/>
      <point x="284" y="37"/>
      <point x="151" y="23" type="curve"/>
      <point x="87" y="545" type="line"/>
      <point x="55" y="545" type="line"/>
    </contour>
  </outline>
</glyph>
<glyph name="yod-hb" format="2">
  <advance width="201"/>
  <unicode hex="05D9"/>
  <anchor x="101" y="0" name="bottom"/>
  <anchor x="20" y="0" name="bottomleft"/>
  <anchor x="12" y="339" name="center"/>
  <anchor x="101" y="500" name="top"/>
  <anchor x="20" y="500" name="topleft"/>
  <outline>
    <contour>
      <point x="89" y="210" type="line"/>
      <point x="120" y="220" type="line"/>
      <point x="121" y="283" type="line"/>
      <point x="121" y="428" type="line"/>
      <point x="107" y="545" type="line"/>
      <point x="75" y="545" type="line"/>
      <point x="89" y="428" type="line"/>
      <point x="89" y="283" type="line"/>
    </contour>
  </outline>
</glyph>
<glyph name="kaf-hb" format="2">
  <advance width="462"/>
  <unicode hex="05DB"/>
  <anchor x="194" y="0" name="bottom"/>
  <anchor x="5" y="0" name="bottomleft"/>
  <anchor x="184" y="240" name="center"/>
  <anchor x="224" y="500" name="top"/>
  <anchor x="5" y="500" name="topleft"/>
  <outline>
    <contour>
      <point x="55" y="0" type="line"/>
      <point x="169" y="0" type="line" smooth="yes"/>
      <point x="310" y="0"/>
      <point x="397" y="77"/>
      <point x="397" y="245" type="curve" smooth="yes"/>
      <point x="397" y="300" type="line" smooth="yes"/>
      <point x="397" y="468"/>
      <point x="310" y="545"/>
      <point x="169" y="545" type="curve" smooth="yes"/>
      <point x="55" y="545" type="line"/>
      <point x="55" y="515" type="line"/>
      <point x="169" y="515" type="line" smooth="yes"/>
      <point x="297" y="515"/>
      <point x="365" y="447"/>
      <point x="365" y="300" type="curve" smooth="yes"/>
      <point x="365" y="245" type="line" smooth="yes"/>
      <point x="365" y="98"/>
      <point x="297" y="30"/>
      <point x="169" y="30" type="curve" smooth="yes"/>
      <point x="55" y="30" type="line"/>
    </contour>
  </outline>
</glyph>
<glyph name="lamed-hb" format="2">
  <advance width="462"/>
  <unicode hex="05DC"/>
  <anchor x="186" y="0" name="bottom"/>
  <anchor x="20" y="0" name="bottomleft"/>
  <anchor x="136" y="250" name="center"/>
  <anchor x="236" y="500" name="top"/>
  <anchor x="-29" y="500" name="topleft"/>
  <outline>
    <contour>
      <point x="173" y="0" type="line"/>
      <point x="205" y="0" type="line"/>
      <point x="407" y="515" type="line"/>
      <point x="407" y="545" type="line"/>
      <point x="50" y="545" type="line"/>
      <point x="50" y="515" type="line"/>
      <point x="375" y="515" type="line"/>
    </contour>
    <contour>
      <point x="50" y="515" type="line"/>
      <point x="82" y="515" type="line"/>
      <point x="82" y="717" type="line"/>
      <point x="50" y="717" type="line"/>
    </contour>
  </outline>
</glyph>
<glyph name="finalmem-hb" format="2">
  <advance width="572"/>
  <unicode hex="05DD"/>
  <anchor x="286" y="0" name="bottom"/>
  <anchor x="20" y="0" name="bottomleft"/>
  <anchor x="286" y="250" name="center"/>
  <anchor x="286" y="500" name="top"/>
  <anchor x="20" y="500" name="topleft"/>
  <outline>
    <contour>
      <point x="460" y="0" type="line"/>
      <point x="492" y="0" type="line"/>
      <point x="492" y="37" type="line"/>
      <point x="492" y="360" type="line"/>
      <point x="492" y="496"/>
      <point x="427" y="545"/>
      <point x="327" y="545" type="curve" smooth="yes"/>
      <point x="106" y="545" type="line"/>
      <point x="106" y="515" type="line"/>
      <point x="325" y="515" type="line" smooth="yes"/>
      <point x="405" y="515"/>
      <point x="460" y="477"/>
      <point x="460" y="360" type="curve"/>
    </contour>
    <contour>
      <point x="102" y="0" type="line"/>
      <point x="473" y="0" type="line"/>
      <point x="483" y="30" type="line"/>
      <point x="102" y="30" type="line"/>
    </contour>
    <contour>
      <point x="90" y="0" type="line"/>
      <point x="122" y="0" type="line"/>
      <point x="122" y="515" type="line"/>
      <point x="122" y="545" type="line"/>
      <point x="90" y="545" type="line"/>
      <point x="90" y="515" type="line"/>
    </contour>
  </outline>
</glyph>
<glyph name="mem-hb" format="2">
  <advance width="580"/>
  <unicode hex="05DE"/>
  <anchor x="290" y="0" name="bottom"/>
  <anchor x="20" y="0" name="bottomleft"/>
  <anchor x="320" y="250" name="center"/>
  <anchor x="290" y="500" name="top"/>
  <anchor x="20" y="500" name="topleft"/>
  <outline>
    <contour>
      <point x="227" y="-2" type="line"/>
      <point x="421" y="-42"/>
      <point x="529" y="63"/>
      <point x="522" y="301" type="curve" smooth="yes"/>
      <point x="516" y="498"/>
      <point x="421" y="548"/>
      <point x="324" y="548" type="curve" smooth="yes"/>
      <point x="249" y="548"/>
      <point x="176" y="504"/>
      <point x="153" y="404" type="curve"/>
      <point x="169" y="374" type="line"/>
      <point x="186" y="445"/>
      <point x="225" y="519"/>
      <point x="325" y="519" type="curve" smooth="yes"/>
      <point x="410" y="519"/>
      <point x="485" y="472"/>
      <point x="490" y="301" type="curve" smooth="yes"/>
      <point x="496" y="83"/>
      <point x="407" y="-12"/>
      <point x="232" y="27" type="curve"/>
    </contour>
    <contour>
      <point x="65" y="0" type="line"/>
      <point x="97" y="0" type="line"/>
      <point x="173" y="392" type="line"/>
      <point x="99" y="545" type="line"/>
      <point x="66" y="545" type="line"/>
      <point x="142" y="391" type="line"/>
    </contour>
  </outline>
</glyph>
<glyph name="finalnun-hb" format="2">
  <advance width="201"/>
  <unicode hex="05DF"/>
  <anchor x="101" y="0" name="bottom"/>
  <anchor x="20" y="0" name="bottomleft"/>
  <anchor x="101" y="250" name="center"/>
  <anchor x="101" y="500" name="top"/>
  <anchor x="20" y="500" name="topleft"/>
  <outline>
    <contour>
      <point x="89" y="-200" type="line"/>
      <point x="121" y="-200" type="line"/>
      <point x="121" y="428" type="line"/>
      <point x="107" y="545" type="line"/>
      <point x="75" y="545" type="line"/>
      <point x="89" y="428" type="line"/>
    </contour>
  </outline>
</glyph>
<glyph name="nun-hb" format="2">
  <advance width="359"/>
  <unicode hex="05E0"/>
  <anchor x="150" y="0" name="bottom"/>
  <anchor x="20" y="0" name="bottomleft"/>
  <anchor x="110" y="250" name="center"/>
  <anchor x="180" y="500" name="top"/>
  <anchor x="20" y="500" name="topleft"/>
  <outline>
    <contour>
      <point x="55" y="0" type="line"/>
      <point x="279" y="0" type="line"/>
      <point x="279" y="393" type="line"/>
      <point x="279" y="484"/>
      <point x="234" y="530"/>
      <point x="156" y="544" type="curve" smooth="yes"/>
      <point x="95" y="555" type="line"/>
      <point x="89" y="526" type="line"/>
      <point x="154" y="515" type="line" smooth="yes"/>
      <point x="212" y="505"/>
      <point x="247" y="471"/>
      <point x="247" y="393" type="curve"/>
      <point x="247" y="30" type="line"/>
      <point x="55" y="30" type="line"/>
    </contour>
  </outline>
</glyph>
<glyph name="samekh-hb" format="2">
  <advance width="538"/>
  <unicode hex="05E1"/>
  <anchor x="268" y="0" name="bottom"/>
  <anchor x="10" y="0" name="bottomleft"/>
  <anchor x="268" y="250" name="center"/>
  <anchor x="268" y="500" name="top"/>
  <anchor x="10" y="500" name="topleft"/>
  <outline>
    <contour>
      <point x="122" y="-10" type="line"/>
      <point x="308" y="0"/>
      <point x="492" y="72"/>
      <point x="483" y="316" type="curve" smooth="yes"/>
      <point x="482" y="344" type="line" smooth="yes"/>
      <point x="478" y="463"/>
      <point x="417" y="545"/>
      <point x="306" y="545" type="curve" smooth="yes"/>
      <point x="55" y="545" type="line"/>
      <point x="58" y="515" type="line"/>
      <point x="302" y="515" type="line" smooth="yes"/>
      <point x="402" y="515"/>
      <point x="451" y="434"/>
      <point x="451" y="337" type="curve" smooth="yes"/>
      <point x="451" y="316" type="line"/>
      <point x="461" y="83"/>
      <point x="284" y="37"/>
      <point x="151" y="23" type="curve"/>
      <point x="87" y="538" type="line"/>
      <point x="58" y="515" type="line"/>
    </contour>
  </outline>
</glyph>
<glyph name="pe-hb" format="2">
  <advance width="530"/>
  <unicode hex="05E4"/>
  <anchor x="277" y="0" name="bottom"/>
  <anchor x="24" y="0" name="bottomleft"/>
  <anchor x="282" y="250" name="center"/>
  <anchor x="277" y="500" name="top"/>
  <anchor x="24" y="500" name="topleft"/>
  <outline>
    <contour>
      <point x="91" y="0" type="line"/>
      <point x="229" y="0" type="line" smooth="yes"/>
      <point x="350" y="0"/>
      <point x="465" y="49"/>
      <point x="465" y="247" type="curve" smooth="yes"/>
      <point x="465" y="302" type="line"/>
      <point x="464" y="469"/>
      <point x="392" y="545"/>
      <point x="272" y="545" type="curve" smooth="yes"/>
      <point x="120" y="545" type="line"/>
      <point x="83" y="387" type="line"/>
      <point x="60" y="274"/>
      <point x="86" y="216"/>
      <point x="185" y="197" type="curve"/>
      <point x="197" y="226" type="line"/>
      <point x="107" y="243"/>
      <point x="93" y="291"/>
      <point x="115" y="387" type="curve"/>
      <point x="146" y="515" type="line"/>
      <point x="272" y="515" type="line" smooth="yes"/>
      <point x="380" y="515"/>
      <point x="433" y="447"/>
      <point x="433" y="300" type="curve" smooth="yes"/>
      <point x="433" y="247" type="line" smooth="yes"/>
      <point x="433" y="70"/>
      <point x="337" y="30"/>
      <point x="229" y="30" type="curve" smooth="yes"/>
      <point x="91" y="30" type="line"/>
    </contour>
  </outline>
</glyph>
<glyph name="tsadi-hb" format="2">
  <advance width="488"/>
  <unicode hex="05E6"/>
  <anchor x="239" y="0" name="bottom"/>
  <anchor x="10" y="0" name="bottomleft"/>
  <anchor x="159" y="120" name="center"/>
  <anchor x="239" y="500" name="top"/>
  <anchor x="10" y="500" name="topleft"/>
  <outline>
    <contour>
      <point x="408" y="0" type="line"/>
      <point x="443" y="0" type="line"/>
      <point x="107" y="545" type="line"/>
      <point x="72" y="545" type="line"/>
    </contour>
    <contour>
      <point x="45" y="0" type="line"/>
      <point x="421" y="0" type="line"/>
      <point x="411" y="30" type="line"/>
      <point x="45" y="30" type="line"/>
    </contour>
    <contour>
      <point x="280" y="237" type="line"/>
      <point x="419" y="545" type="line"/>
      <point x="385" y="545" type="line"/>
      <point x="264" y="269" type="line"/>
    </contour>
  </outline>
</glyph>
<glyph name="qof-hb" format="2">
  <advance width="521"/>
  <unicode hex="05E7"/>
  <anchor x="266" y="0" name="bottom"/>
  <anchor x="21" y="0" name="bottomleft"/>
  <anchor x="266" y="250" name="center"/>
  <anchor x="266" y="500" name="top"/>
  <anchor x="21" y="500" name="topleft"/>
  <outline>
    <contour>
      <point x="209" y="0" type="line"/>
      <point x="312" y="8"/>
      <point x="429" y="70"/>
      <point x="439" y="281" type="curve"/>
      <point x="459" y="515" type="line"/>
      <point x="461" y="545" type="line"/>
      <point x="60" y="545" type="line"/>
      <point x="60" y="515" type="line"/>
      <point x="427" y="515" type="line"/>
      <point x="407" y="281" type="line"/>
      <point x="393" y="72"/>
      <point x="298" y="43"/>
      <point x="204" y="30" type="curve"/>
    </contour>
    <contour>
      <point x="68" y="-200" type="line"/>
      <point x="100" y="-200" type="line"/>
      <point x="100" y="288" type="line"/>
      <point x="100" y="355" type="line"/>
      <point x="73" y="355" type="line"/>
      <point x="68" y="288" type="line"/>
    </contour>
  </outline>
</glyph>
<glyph name="tav-hb" format="2">
  <advance width="585"/>
  <unicode hex="05EA"/>
  <anchor x="319" y="0" name="bottom"/>
  <anchor x="11" y="0" name="bottomleft"/>
  <anchor x="319" y="250" name="center"/>
  <anchor x="288" y="500" name="top"/>
  <anchor x="91" y="500" name="topleft"/>
  <outline>
    <contour>
      <point x="30" y="-12" type="line"/>
      <point x="129" y="-3"/>
      <point x="170" y="53"/>
      <point x="170" y="148" type="curve" smooth="yes"/>
      <point x="170" y="515" type="line"/>
      <point x="343" y="515" type="line" smooth="yes"/>
      <point x="423" y="515"/>
      <point x="478" y="477"/>
      <point x="478" y="360" type="curve" smooth="yes"/>
      <point x="478" y="0" type="line"/>
      <point x="510" y="0" type="line"/>
      <point x="510" y="360" type="line" smooth="yes"/>
      <point x="510" y="496"/>
      <point x="445" y="545"/>
      <point x="345" y="545" type="curve" smooth="yes"/>
      <point x="138" y="545" type="line"/>
      <point x="138" y="147" type="line" smooth="yes"/>
      <point x="139" y="69"/>
      <point x="109" y="21"/>
      <point x="25" y="15" type="curve"/>
    </contour>
  </outline>
</glyph>
<glyph name="gershayim-hb" format="2">
  <advance width="344"/>
  <unicode hex="05F4"/>
  <outline>
    <contour>
      <point x="198" y="510" type="line"/>
      <point x="290" y="670" type="line"/>
      <point x="264" y="686" type="line"/>
      <point x="178" y="520" type="line"/>
    </contour>
    <contour>
      <point x="70" y="510" type="line"/>
      <point x="162" y="670" type="line"/>
      <point x="136" y="686" type="line"/>
      <point x="50" y="520" type="line"/>
    </contour>
  </outline>
</glyph>
<glyph name="emdash" format="2">
  <advance width="800"/>
  <unicode hex="2014"/>
  <outline>
    <contour>
      <point x="40" y="236" type="line"/>
      <point x="760" y="236" type="line"/>
      <point x="760" y="264" type="line"/>
      <point x="40" y="264" type="line"/>
    </contour>
  </outline>
</glyph>
<glyph name="newsheqel" format="2">
  <advance width="664"/>
  <unicode hex="20AA"/>
  <outline>
    <contour>
      <point x="75" y="0" type="line"/>
      <point x="107" y="0" type="line"/>
      <point x="107" y="515" type="line"/>
      <point x="260" y="515" type="line" smooth="yes"/>
      <point x="349" y="515"/>
      <point x="375" y="455"/>
      <point x="375" y="340" type="curve" smooth="yes"/>
      <point x="375" y="180" type="line"/>
      <point x="407" y="180" type="line"/>
      <point x="407" y="340" type="line" smooth="yes"/>
      <point x="407" y="475"/>
      <point x="370" y="545"/>
      <point x="262" y="545" type="curve" smooth="yes"/>
      <point x="75" y="545" type="line"/>
    </contour>
    <contour>
      <point x="218" y="0" type="line"/>
      <point x="505" y="8"/>
      <point x="601" y="129"/>
      <point x="599" y="417" type="curve" smooth="yes"/>
      <point x="598" y="545" type="line"/>
      <point x="566" y="545" type="line"/>
      <point x="567" y="417" type="line" smooth="yes"/>
      <point x="569" y="150"/>
      <point x="499" y="48"/>
      <point x="250" y="33" type="curve"/>
      <point x="250" y="365" type="line"/>
      <point x="218" y="365" type="line"/>
    </contour>
  </outline>
</glyph>
<glyph name="lozenge" format="2">
  <advance width="492"/>
  <unicode hex="25CA"/>
  <outline>
    <contour>
      <point x="226" y="-10" type="line"/>
      <point x="266" y="-10" type="line"/>
      <point x="432" y="330" type="line"/>
      <point x="266" y="670" type="line"/>
      <point x="226" y="670" type="line"/>
      <point x="60" y="330" type="line"/>
    </contour>
    <contour>
      <point x="244" y="16" type="line"/>
      <point x="174" y="158" type="line"/>
      <point x="94" y="330" type="line"/>
      <point x="174" y="500" type="line"/>
      <point x="244" y="644" type="line"/>
      <point x="248" y="644" type="line"/>
      <point x="318" y="500" type="line"/>
      <point x="398" y="330" type="line"/>
      <point x="318" y="158" type="line"/>
      <point x="248" y="16" type="line"/>
    </contour>
  </outline>
</glyph>
<glyph name="backslash.lat" format="2">
  <advance width="360"/>
  <outline>
    <contour>
      <point x="322" y="-160" type="line"/>
      <point x="352" y="-160" type="line"/>
      <point x="32" y="710" type="line"/>
      <point x="2" y="710" type="line"/>
    </contour>
  </outline>
</glyph>
<glyph name="bracketleft.lat" format="2">
  <advance width="270"/>
  <outline>
    <contour>
      <point x="100" y="-152" type="line"/>
      <point x="252" y="-152" type="line"/>
      <point x="252" y="-130" type="line"/>
      <point x="124" y="-130" type="line"/>
      <point x="124" y="686" type="line"/>
      <point x="252" y="686" type="line"/>
      <point x="252" y="708" type="line"/>
      <point x="100" y="708" type="line"/>
    </contour>
  </outline>
</glyph>
<glyph name="caroncomb.cap" format="2">
  <anchor x="0" y="680" name="_aboveUC"/>
  <outline>
    <contour>
      <point x="-14" y="710" type="line"/>
      <point x="14" y="710" type="line"/>
      <point x="130" y="824" type="line"/>
      <point x="116" y="840" type="line"/>
      <point x="2" y="740" type="line"/>
      <point x="-2" y="740" type="line"/>
      <point x="-116" y="840" type="line"/>
      <point x="-130" y="824" type="line"/>
    </contour>
  </outline>
</glyph>
<glyph name="dieresiscomb.cap" format="2">
  <anchor x="0" y="680" name="_aboveUC"/>
  <outline>
    <contour>
      <point x="96" y="728" type="curve" smooth="yes"/>
      <point x="114" y="728"/>
      <point x="128" y="740"/>
      <point x="128" y="760" type="curve" smooth="yes"/>
      <point x="128" y="780"/>
      <point x="114" y="792"/>
      <point x="96" y="792" type="curve" smooth="yes"/>
      <point x="78" y="792"/>
      <point x="64" y="780"/>
      <point x="64" y="760" type="curve" smooth="yes"/>
      <point x="64" y="740"/>
      <point x="78" y="728"/>
    </contour>
    <contour>
      <point x="-96" y="728" type="curve" smooth="yes"/>
      <point x="-78" y="728"/>
      <point x="-64" y="740"/>
      <point x="-64" y="760" type="curve" smooth="yes"/>
      <point x="-64" y="780"/>
      <point x="-78" y="792"/>
      <point x="-96" y="792" type="curve" smooth="yes"/>
      <point x="-114" y="792"/>
      <point x="-128" y="780"/>
      <point x="-128" y="760" type="curve" smooth="yes"/>
      <point x="-128" y="740"/>
      <point x="-114" y="728"/>
    </contour>
  </outline>
</glyph>
<glyph name="eight.pnumheb" format="2">
  <advance width="472"/>
  <outline>
    <contour>
      <point x="258" y="-13" type="curve" smooth="yes"/>
      <point x="357" y="-13"/>
      <point x="424" y="51"/>
      <point x="424" y="132" type="curve" smooth="yes"/>
      <point x="424" y="192"/>
      <point x="395" y="230"/>
      <point x="324" y="274" type="curve"/>
      <point x="373" y="314"/>
      <point x="407" y="370"/>
      <point x="407" y="421" type="curve" smooth="yes"/>
      <point x="407" y="503"/>
      <point x="352" y="566"/>
      <point x="258" y="566" type="curve" smooth="yes"/>
      <point x="179" y="566"/>
      <point x="116" y="510"/>
      <point x="116" y="431" type="curve" smooth="yes"/>
      <point x="116" y="381"/>
      <point x="145" y="336"/>
      <point x="198" y="302" type="curve"/>
      <point x="129" y="265"/>
      <point x="83" y="206"/>
      <point x="83" y="141" type="curve" smooth="yes"/>
      <point x="83" y="52"/>
      <point x="158" y="-13"/>
    </contour>
    <contour>
      <point x="258" y="13" type="curve" smooth="yes"/>
      <point x="174" y="13"/>
      <point x="113" y="69"/>
      <point x="113" y="141" type="curve" smooth="yes"/>
      <point x="113" y="198"/>
      <point x="149" y="248"/>
      <point x="218" y="288" type="curve"/>
      <point x="306" y="253"/>
      <point x="394" y="222"/>
      <point x="394" y="132" type="curve" smooth="yes"/>
      <point x="394" y="66"/>
      <point x="341" y="13"/>
    </contour>
    <contour>
      <point x="299" y="286" type="curve"/>
      <point x="225" y="315"/>
      <point x="146" y="348"/>
      <point x="146" y="431" type="curve" smooth="yes"/>
      <point x="146" y="493"/>
      <point x="192" y="540"/>
      <point x="258" y="540" type="curve" smooth="yes"/>
      <point x="334" y="540"/>
      <point x="377" y="485"/>
      <point x="377" y="421" type="curve" smooth="yes"/>
      <point x="377" y="373"/>
      <point x="351" y="327"/>
    </contour>
  </outline>
</glyph>
<glyph name="emdash.lat" format="2">
  <advance width="800"/>
  <outline>
    <contour>
      <point x="40" y="236" type="line"/>
      <point x="760" y="236" type="line"/>
      <point x="760" y="264" type="line"/>
      <point x="40" y="264" type="line"/>
    </contour>
  </outline>
</glyph>
<glyph name="endash.lat" format="2">
  <advance width="480"/>
  <outline>
    <contour>
      <point x="40" y="236" type="line"/>
      <point x="440" y="236" type="line"/>
      <point x="440" y="264" type="line"/>
      <point x="40" y="264" type="line"/>
    </contour>
  </outline>
</glyph>
<glyph name="gravecomb.cap" format="2">
  <anchor x="0" y="680" name="_aboveUC"/>
  <outline>
    <contour>
      <point x="22" y="710" type="line"/>
      <point x="36" y="726" type="line"/>
      <point x="-82" y="846" type="line"/>
      <point x="-104" y="822" type="line"/>
    </contour>
  </outline>
</glyph>
<glyph name="guillemetright.lat" format="2">
  <advance width="388"/>
  <outline>
    <contour>
      <point x="208" y="74" type="line"/>
      <point x="346" y="238" type="line"/>
      <point x="346" y="266" type="line"/>
      <point x="208" y="430" type="line"/>
      <point x="188" y="412" type="line"/>
      <point x="312" y="252" type="line"/>
      <point x="188" y="90" type="line"/>
    </contour>
    <contour>
      <point x="74" y="74" type="line"/>
      <point x="212" y="238" type="line"/>
      <point x="212" y="266" type="line"/>
      <point x="74" y="430" type="line"/>
      <point x="54" y="412" type="line"/>
      <point x="178" y="252" type="line"/>
      <point x="54" y="90" type="line"/>
    </contour>
  </outline>
</glyph>
<glyph name="ismall" format="2">
  <advance width="298"/>
  <anchor x="150" y="500" name="aboveLC"/>
  <anchor x="150" y="-20" name="belowLC"/>
  <anchor x="124" y="0" name="ogonekUC"/>
  <outline>
    <contour>
      <point x="42" y="0" type="line"/>
      <point x="256" y="0" type="line"/>
      <point x="256" y="28" type="line"/>
      <point x="164" y="28" type="line"/>
      <point x="164" y="450" type="line"/>
      <point x="256" y="450" type="line"/>
      <point x="256" y="478" type="line"/>
      <point x="42" y="478" type="line"/>
      <point x="42" y="450" type="line"/>
      <point x="134" y="450" type="line"/>
      <point x="134" y="28" type="line"/>
      <point x="42" y="28" type="line"/>
    </contour>
  </outline>
</glyph>
<glyph name="nine.pnumheb" format="2">
  <advance width="472"/>
  <outline>
    <contour>
      <point x="199.739" y="-13.435" type="curve" smooth="yes"/>
      <point x="306.189" y="-13.435"/>
      <point x="402.478" y="67.098"/>
      <point x="402.478" y="304.087" type="curve"/>
      <point x="402.478" y="468.271"/>
      <point x="337.042" y="565.957"/>
      <point x="224.087" y="565.957" type="curve" smooth="yes"/>
      <point x="143.651" y="565.957"/>
      <point x="75.261" y="492.306"/>
      <point x="75.261" y="392.783" type="curve" smooth="yes"/>
      <point x="75.261" y="282.606"/>
      <point x="130.051" y="219.609"/>
      <point x="229.304" y="219.609" type="curve" smooth="yes"/>
      <point x="282.69" y="219.609"/>
      <point x="335.613" y="250.13"/>
      <point x="377.914" y="303.466" type="curve"/>
      <point x="384" y="321" type="line"/>
      <point x="378.13" y="338.87" type="line"/>
      <point x="376.318" y="339.453" type="line"/>
      <point x="327.774" y="271.838"/>
      <point x="272.56" y="245.957"/>
      <point x="231.043" y="245.957" type="curve" smooth="yes"/>
      <point x="141.191" y="245.957"/>
      <point x="105.087" y="309.568"/>
      <point x="105.087" y="392.783" type="curve" smooth="yes"/>
      <point x="105.087" y="474.184"/>
      <point x="155.017" y="539.609"/>
      <point x="222.348" y="539.609" type="curve" smooth="yes"/>
      <point x="327.787" y="539.609"/>
      <point x="372.652" y="439.525"/>
      <point x="372.652" y="304.087" type="curve" smooth="yes"/>
      <point x="372.652" y="87.13"/>
      <point x="293.258" y="12.913"/>
      <point x="201.478" y="12.913" type="curve" smooth="yes"/>
      <point x="164.831" y="12.913"/>
      <point x="131.431" y="28.678"/>
      <point x="106.605" y="59.497" type="curve"/>
      <point x="105.086" y="59.542" type="line"/>
      <point x="87.695" y="40.412" type="line"/>
      <point x="87.677" y="39.087" type="line"/>
      <point x="114.742" y="7.656"/>
      <point x="150.772" y="-13.435"/>
    </contour>
  </outline>
</glyph>
<glyph name="one.pnumheb" format="2">
  <advance width="336"/>
  <outline>
    <contour>
      <point x="168" y="-1" type="line"/>
      <point x="196" y="-1" type="line"/>
      <point x="196" y="558" type="line"/>
      <point x="172" y="558" type="line"/>
      <point x="171.496" y="557.864" type="line"/>
      <point x="147.571" y="543.907"/>
      <point x="112.745" y="530.972"/>
      <point x="68.843" y="523.988" type="curve"/>
      <point x="68" y="523" type="line"/>
      <point x="68" y="503" type="line"/>
      <point x="168" y="503" type="line"/>
    </contour>
    <contour>
      <point x="296" y="29" type="line"/>
      <point x="68" y="29" type="line"/>
      <point x="68" y="-1" type="line"/>
      <point x="296" y="-1" type="line"/>
    </contour>
  </outline>
</glyph>
<glyph name="one.sups" format="2">
  <advance width="360"/>
  <outline>
    <contour>
      <point x="178" y="410" type="line"/>
      <point x="206" y="410" type="line"/>
      <point x="206" y="800" type="line"/>
      <point x="180" y="800" type="line"/>
      <point x="158" y="782"/>
      <point x="132" y="770"/>
      <point x="96" y="762" type="curve"/>
      <point x="96" y="740" type="line"/>
      <point x="178" y="740" type="line"/>
    </contour>
  </outline>
</glyph>
<glyph name="periodcentered.lat" format="2">
  <advance width="208"/>
  <outline>
    <contour>
      <point x="104" y="284" type="curve" smooth="yes"/>
      <point x="122" y="284"/>
      <point x="140" y="298"/>
      <point x="140" y="322" type="curve" smooth="yes"/>
      <point x="140" y="348"/>
      <point x="122" y="362"/>
      <point x="104" y="362" type="curve" smooth="yes"/>
      <point x="86" y="362"/>
      <point x="68" y="348"/>
      <point x="68" y="322" type="curve" smooth="yes"/>
      <point x="68" y="298"/>
      <point x="86" y="284"/>
    </contour>
  </outline>
</glyph>
<glyph name="popdirectionformat" format="2">
  <outline>
    <contour>
      <point x="-19" y="765" type="line"/>
      <point x="17" y="765" type="line"/>
      <point x="17" y="925" type="line"/>
      <point x="79" y="861" type="line"/>
      <point x="104" y="887" type="line"/>
      <point x="0" y="994" type="line"/>
      <point x="-104" y="887" type="line"/>
      <point x="-79" y="861" type="line"/>
      <point x="-19" y="924" type="line"/>
    </contour>
  </outline>
</glyph>
<glyph name="quotedblleft.lat" format="2">
  <advance width="336"/>
  <outline>
    <contour>
      <point x="96" y="500" type="curve" smooth="yes"/>
      <point x="116" y="500"/>
      <point x="130" y="512"/>
      <point x="130" y="534" type="curve" smooth="yes"/>
      <point x="130" y="556"/>
      <point x="112" y="566"/>
      <point x="96" y="566" type="curve" smooth="yes"/>
      <point x="84" y="566"/>
      <point x="80" y="564"/>
      <point x="70" y="552" type="curve"/>
      <point x="106" y="514" type="line"/>
      <point x="88" y="564" type="line"/>
      <point x="88" y="620"/>
      <point x="110" y="652"/>
      <point x="152" y="688" type="curve"/>
      <point x="136" y="706" type="line"/>
      <point x="88" y="672"/>
      <point x="58" y="626"/>
      <point x="58" y="558" type="curve" smooth="yes"/>
      <point x="58" y="520"/>
      <point x="74" y="500"/>
    </contour>
    <contour>
      <point x="224" y="500" type="curve" smooth="yes"/>
      <point x="244" y="500"/>
      <point x="258" y="512"/>
      <point x="258" y="534" type="curve" smooth="yes"/>
      <point x="258" y="556"/>
      <point x="240" y="566"/>
      <point x="224" y="566" type="curve" smooth="yes"/>
      <point x="212" y="566"/>
      <point x="208" y="564"/>
      <point x="198" y="552" type="curve"/>
      <point x="234" y="514" type="line"/>
      <point x="216" y="564" type="line"/>
      <point x="216" y="620"/>
      <point x="238" y="652"/>
      <point x="280" y="688" type="curve"/>
      <point x="264" y="706" type="line"/>
      <point x="216" y="672"/>
      <point x="186" y="626"/>
      <point x="186" y="558" type="curve" smooth="yes"/>
      <point x="186" y="520"/>
      <point x="202" y="500"/>
    </contour>
  </outline>
</glyph>
<glyph name="quotesinglbase.lat" format="2">
  <advance width="208"/>
  <outline>
    <contour>
      <point x="72" y="-126" type="line"/>
      <point x="120" y="-92"/>
      <point x="150" y="-46"/>
      <point x="150" y="22" type="curve" smooth="yes"/>
      <point x="150" y="60"/>
      <point x="134" y="80"/>
      <point x="112" y="80" type="curve" smooth="yes"/>
      <point x="92" y="80"/>
      <point x="78" y="68"/>
      <point x="78" y="46" type="curve" smooth="yes"/>
      <point x="78" y="24"/>
      <point x="96" y="14"/>
      <point x="112" y="14" type="curve" smooth="yes"/>
      <point x="124" y="14"/>
      <point x="128" y="16"/>
      <point x="138" y="28" type="curve"/>
      <point x="102" y="66" type="line"/>
      <point x="120" y="16" type="line"/>
      <point x="120" y="-40"/>
      <point x="98" y="-72"/>
      <point x="56" y="-108" type="curve"/>
    </contour>
  </outline>
</glyph>
<glyph name="quotesingle.lat" format="2">
  <advance width="208"/>
  <outline>
    <contour>
      <point x="90" y="494" type="line"/>
      <point x="116" y="494" type="line"/>
      <point x="122" y="634" type="line"/>
      <point x="122" y="694" type="line"/>
      <point x="84" y="694" type="line"/>
      <point x="84" y="634" type="line"/>
    </contour>
  </outline>
</glyph>
<glyph name="righttoleftembed" format="2">
  <outline>
    <contour>
      <point x="-39" y="768" type="line"/>
      <point x="-14" y="792" type="line"/>
      <point x="-76" y="858" type="line"/>
      <point x="-1" y="858" type="line"/>
      <point x="-1" y="894" type="line"/>
      <point x="-77" y="894" type="line"/>
      <point x="-14" y="958" type="line"/>
      <point x="-39" y="984" type="line"/>
      <point x="-144" y="875" type="line"/>
    </contour>
    <contour>
      <point x="41" y="858" type="line"/>
      <point x="129" y="858" type="line"/>
      <point x="129" y="894" type="line"/>
      <point x="41" y="894" type="line"/>
    </contour>
  </outline>
</glyph>
<glyph name="ringcomb.cap" format="2">
  <anchor x="0" y="680" name="_aboveUC"/>
  <outline>
    <contour>
      <point x="0" y="700" type="curve" smooth="yes"/>
      <point x="45" y="700"/>
      <point x="84" y="734"/>
      <point x="84" y="784" type="curve" smooth="yes"/>
      <point x="84" y="835"/>
      <point x="45" y="868"/>
      <point x="0" y="868" type="curve" smooth="yes"/>
      <point x="-47" y="868"/>
      <point x="-84" y="835"/>
      <point x="-84" y="784" type="curve" smooth="yes"/>
      <point x="-84" y="734"/>
      <point x="-47" y="700"/>
    </contour>
    <contour>
      <point x="0" y="722" type="curve" smooth="yes"/>
      <point x="-33" y="722"/>
      <point x="-60" y="743"/>
      <point x="-60" y="784" type="curve" smooth="yes"/>
      <point x="-60" y="823"/>
      <point x="-33" y="846"/>
      <point x="0" y="846" type="curve" smooth="yes"/>
      <point x="31" y="846"/>
      <point x="58" y="823"/>
      <point x="58" y="784" type="curve" smooth="yes"/>
      <point x="58" y="743"/>
      <point x="31" y="722"/>
    </contour>
  </outline>
</glyph>
<glyph name="rsmallinverted" format="2">
  <advance width="466"/>
  <anchor x="233" y="500" name="aboveLC"/>
  <anchor x="248" y="500" name="aboveUC"/>
  <anchor x="270" y="-20" name="belowLC"/>
  <outline>
    <contour>
      <point x="224" y="0" type="curve" smooth="yes"/>
      <point x="370" y="0" type="line"/>
      <point x="370" y="478" type="line"/>
      <point x="340" y="478" type="line"/>
      <point x="340" y="266" type="line"/>
      <point x="216" y="266" type="line"/>
      <point x="128" y="266"/>
      <point x="57" y="224"/>
      <point x="57" y="130" type="curve" smooth="yes"/>
      <point x="57" y="36"/>
      <point x="126" y="0"/>
    </contour>
    <contour>
      <point x="234" y="28" type="line" smooth="yes"/>
      <point x="145" y="28"/>
      <point x="89" y="59"/>
      <point x="89" y="130" type="curve" smooth="yes"/>
      <point x="89" y="201"/>
      <point x="145" y="238"/>
      <point x="234" y="238" type="curve" smooth="yes"/>
      <point x="340" y="238" type="line"/>
      <point x="340" y="28" type="line"/>
    </contour>
    <contour>
      <point x="198" y="252" type="line"/>
      <point x="222" y="264" type="line"/>
      <point x="80" y="478" type="line"/>
      <point x="46" y="478" type="line"/>
    </contour>
  </outline>
</glyph>
<glyph name="seven.heb" format="2">
  <advance width="472"/>
  <outline>
    <contour>
      <point x="192" y="0" type="curve"/>
      <point x="226" y="0" type="line"/>
      <point x="236" y="250"/>
      <point x="276" y="416"/>
      <point x="430" y="622" type="curve"/>
      <point x="430" y="640" type="line"/>
      <point x="44" y="640" type="line"/>
      <point x="44" y="612" type="line"/>
      <point x="388" y="612" type="line"/>
      <point x="258" y="430"/>
      <point x="202" y="264"/>
    </contour>
  </outline>
</glyph>
<glyph name="seven.pnumheb" format="2">
  <advance width="470"/>
  <outline>
    <contour>
      <point x="188" y="0" type="line"/>
      <point x="218" y="0" type="line"/>
      <point x="219" y="1" type="line"/>
      <point x="228" y="218"/>
      <point x="261" y="363"/>
      <point x="393" y="541" type="curve"/>
      <point x="393" y="559" type="line"/>
      <point x="67" y="559" type="line"/>
      <point x="67" y="532" type="line"/>
      <point x="353" y="532" type="line"/>
      <point x="243" y="374"/>
      <point x="196" y="230"/>
      <point x="187" y="1" type="curve"/>
    </contour>
  </outline>
</glyph>
<glyph name="six.pnumheb" format="2">
  <advance width="472"/>
  <outline>
    <contour>
      <point x="265.348" y="-13.435" type="curve" smooth="yes"/>
      <point x="345.784" y="-13.435"/>
      <point x="414.174" y="60.216"/>
      <point x="414.174" y="159.739" type="curve"/>
      <point x="414.174" y="269.916"/>
      <point x="359.383" y="332.913"/>
      <point x="260.13" y="332.913" type="curve" smooth="yes"/>
      <point x="206.745" y="332.913"/>
      <point x="153.821" y="302.392"/>
      <point x="111.521" y="249.056" type="curve"/>
      <point x="111.304" y="248.435" type="line"/>
      <point x="111.304" y="213.652" type="line"/>
      <point x="113.117" y="213.069" type="line"/>
      <point x="161.66" y="280.683"/>
      <point x="216.875" y="306.565"/>
      <point x="258.391" y="306.565" type="curve" smooth="yes"/>
      <point x="348.244" y="306.565"/>
      <point x="384.348" y="242.953"/>
      <point x="384.348" y="159.739" type="curve" smooth="yes"/>
      <point x="384.348" y="78.338"/>
      <point x="334.418" y="12.913"/>
      <point x="267.087" y="12.913" type="curve" smooth="yes"/>
      <point x="161.648" y="12.913"/>
      <point x="116.783" y="112.996"/>
      <point x="116.783" y="248.435" type="curve"/>
      <point x="116.783" y="465.392"/>
      <point x="196.177" y="539.609"/>
      <point x="287.957" y="539.609" type="curve" smooth="yes"/>
      <point x="324.604" y="539.609"/>
      <point x="358.003" y="523.844"/>
      <point x="382.83" y="493.025" type="curve"/>
      <point x="384.349" y="492.98" type="line"/>
      <point x="401.74" y="512.11" type="line"/>
      <point x="401.747" y="513.447" type="line"/>
      <point x="373.82" y="544.866"/>
      <point x="338.668" y="565.957"/>
      <point x="289.696" y="565.957" type="curve" smooth="yes"/>
      <point x="183.246" y="565.957"/>
      <point x="86.957" y="485.424"/>
      <point x="86.957" y="248.435" type="curve" smooth="yes"/>
      <point x="86.957" y="84.251"/>
      <point x="152.392" y="-13.435"/>
    </contour>
  </outline>
</glyph>
<glyph name="slash.lat" format="2">
  <advance width="360"/>
  <outline>
    <contour>
      <point x="8" y="-160" type="line"/>
      <point x="38" y="-160" type="line"/>
      <point x="358" y="710" type="line"/>
      <point x="328" y="710" type="line"/>
    </contour>
  </outline>
</glyph>
<glyph name="two.pnumheb" format="2">
  <advance width="480"/>
  <outline>
    <contour>
      <point x="66" y="0" type="line"/>
      <point x="402" y="0" type="line"/>
      <point x="402" y="26" type="line"/>
      <point x="201" y="26" type="line" smooth="yes"/>
      <point x="171" y="26"/>
      <point x="140" y="25"/>
      <point x="110" y="23" type="curve"/>
      <point x="272" y="195"/>
      <point x="374" y="302"/>
      <point x="374" y="415" type="curve" smooth="yes"/>
      <point x="374" y="507"/>
      <point x="317" y="569"/>
      <point x="220" y="569" type="curve" smooth="yes"/>
      <point x="156" y="569"/>
      <point x="108" y="536"/>
      <point x="64" y="487" type="curve"/>
      <point x="64" y="485" type="line"/>
      <point x="83" y="468" type="line"/>
      <point x="85" y="468" type="line"/>
      <point x="120" y="511"/>
      <point x="166" y="543"/>
      <point x="218" y="543" type="curve" smooth="yes"/>
      <point x="306" y="543"/>
      <point x="344" y="486"/>
      <point x="344" y="415" type="curve" smooth="yes"/>
      <point x="344" y="316"/>
      <point x="254" y="212"/>
      <point x="66" y="19" type="curve"/>
    </contour>
  </outline>
</glyph>
<glyph name="upsilonlatin" format="2">
  <advance width="528"/>
  <anchor x="264" y="500" name="aboveLC"/>
  <anchor x="264" y="-20" name="belowLC"/>
  <outline>
    <contour>
      <point x="264" y="-12" type="curve"/>
      <point x="396" y="-12"/>
      <point x="472" y="96"/>
      <point x="472" y="216" type="curve" smooth="yes"/>
      <point x="472" y="330"/>
      <point x="420" y="406"/>
      <point x="374" y="448" type="curve"/>
      <point x="374" y="450" type="line"/>
      <point x="484" y="450" type="line"/>
      <point x="484" y="478" type="line"/>
      <point x="322" y="478" type="line"/>
      <point x="322" y="458" type="line"/>
      <point x="388" y="414"/>
      <point x="440" y="334"/>
      <point x="440" y="222" type="curve" smooth="yes"/>
      <point x="440" y="114"/>
      <point x="378" y="16"/>
      <point x="264" y="16" type="curve"/>
      <point x="150" y="16"/>
      <point x="88" y="114"/>
      <point x="88" y="222" type="curve" smooth="yes"/>
      <point x="88" y="334"/>
      <point x="140" y="414"/>
      <point x="206" y="458" type="curve"/>
      <point x="206" y="478" type="line"/>
      <point x="44" y="478" type="line"/>
      <point x="44" y="450" type="line"/>
      <point x="154" y="450" type="line"/>
      <point x="154" y="448" type="line"/>
      <point x="108" y="406"/>
      <point x="56" y="330"/>
      <point x="56" y="216" type="curve" smooth="yes"/>
      <point x="56" y="96"/>
      <point x="132" y="-12"/>
    </contour>
  </outline>
</glyph>
<glyph name="zero.pnumheb" format="2">
  <advance width="504"/>
  <outline>
    <contour>
      <point x="252" y="-13" type="curve" smooth="yes"/>
      <point x="362.091" y="-13"/>
      <point x="423" y="92.436"/>
      <point x="423" y="278" type="curve" smooth="yes"/>
      <point x="423" y="463.089"/>
      <point x="362.949" y="566"/>
      <point x="252" y="566" type="curve" smooth="yes"/>
      <point x="141.051" y="566"/>
      <point x="81" y="463.089"/>
      <point x="81" y="278" type="curve" smooth="yes"/>
      <point x="81" y="92.436"/>
      <point x="141.909" y="-13"/>
    </contour>
    <contour>
      <point x="252" y="13" type="curve" smooth="yes"/>
      <point x="163.435" y="13"/>
      <point x="110" y="110.828"/>
      <point x="110" y="278" type="curve" smooth="yes"/>
      <point x="110" y="444.765"/>
      <point x="162.634" y="540"/>
      <point x="252" y="540" type="curve" smooth="yes"/>
      <point x="341.366" y="540"/>
      <point x="394" y="444.765"/>
      <point x="394" y="278" type="curve" smooth="yes"/>
      <point x="394" y="110.828"/>
      <point x="340.565" y="13"/>
    </contour>
  </outline>
</glyph>
